<svg version="1.1" id="Layer_1" xmlns="http://www.w3.org/2000/svg" xmlns:xlink="http://www.w3.org/1999/xlink" x="0px" y="0px"
	 width="100%" viewBox="0 0 100 100" enable-background="new 0 0 100 100" xml:space="preserve">
<path fill="#000000" opacity="1.000000" stroke="none" 
	d="
M58.000000,101.000000 
	C38.666672,101.000000 19.833340,101.000000 1.000008,101.000000 
	C1.000005,67.666679 1.000005,34.333351 1.000003,1.000021 
	C34.333317,1.000014 67.666634,1.000014 100.999969,1.000007 
	C100.999977,34.333313 100.999977,67.666626 100.999985,100.999969 
	C86.833336,101.000000 72.666664,101.000000 58.000000,101.000000 
M69.820839,88.329124 
	C75.113449,89.010544 80.782356,85.223145 80.858528,80.148170 
	C80.935989,74.987465 83.476791,72.535858 87.757431,70.577682 
	C93.143951,68.113632 95.064972,61.378838 91.875626,56.474430 
	C89.421715,52.700954 89.410965,49.336243 91.852837,45.556046 
	C95.163452,40.430977 92.935600,33.082073 87.360451,31.211523 
	C83.150864,29.799137 81.321266,27.147970 80.989594,22.985468 
	C80.466019,16.414677 75.535515,12.895898 68.992737,13.882142 
	C64.913971,14.496968 61.171165,14.179738 58.271610,10.007113 
	C55.077400,5.410470 46.837059,5.519071 43.582035,10.135924 
	C40.669224,14.267384 36.899197,14.475641 32.824631,13.833821 
	C27.334913,12.969090 21.247528,16.426451 21.166889,21.681082 
	C21.083864,27.091120 18.317236,29.555449 13.968399,31.602795 
	C8.816476,34.028214 6.907280,40.638817 10.026552,45.391521 
	C12.625947,49.352116 12.251564,52.637852 10.031922,56.745548 
	C7.569750,61.302074 8.084940,68.621902 14.488429,70.724579 
	C18.867193,72.162407 20.759666,74.897957 21.042261,79.345207 
	C21.432518,85.486732 26.747602,89.144814 32.846947,88.162392 
	C36.913139,87.507454 40.718735,87.727692 43.591827,91.885025 
	C46.510284,96.107986 54.538273,96.631836 57.575165,92.675201 
	C60.706997,88.594879 64.340668,87.446930 69.820839,88.329124 
z"/>
<path fill="#FF822D" opacity="1.000000" stroke="none" 
	d="
M69.421478,88.188095 
	C64.340668,87.446930 60.706997,88.594879 57.575165,92.675201 
	C54.538273,96.631836 46.510284,96.107986 43.591827,91.885025 
	C40.718735,87.727692 36.913139,87.507454 32.846947,88.162392 
	C26.747602,89.144814 21.432518,85.486732 21.042261,79.345207 
	C20.759666,74.897957 18.867193,72.162407 14.488429,70.724579 
	C8.084940,68.621902 7.569750,61.302074 10.031922,56.745548 
	C12.251564,52.637852 12.625947,49.352116 10.026552,45.391521 
	C6.907280,40.638817 8.816476,34.028214 13.968399,31.602795 
	C18.317236,29.555449 21.083864,27.091120 21.166889,21.681082 
	C21.247528,16.426451 27.334913,12.969090 32.824631,13.833821 
	C36.899197,14.475641 40.669224,14.267384 43.582035,10.135924 
	C46.837059,5.519071 55.077400,5.410470 58.271610,10.007113 
	C61.171165,14.179738 64.913971,14.496968 68.992737,13.882142 
	C75.535515,12.895898 80.466019,16.414677 80.989594,22.985468 
	C81.321266,27.147970 83.150864,29.799137 87.360451,31.211523 
	C92.935600,33.082073 95.163452,40.430977 91.852837,45.556046 
	C89.410965,49.336243 89.421715,52.700954 91.875626,56.474430 
	C95.064972,61.378838 93.143951,68.113632 87.757431,70.577682 
	C83.476791,72.535858 80.935989,74.987465 80.858528,80.148170 
	C80.782356,85.223145 75.113449,89.010544 69.421478,88.188095 
M21.370111,64.981216 
	C27.893576,77.841202 38.614231,84.464645 52.774124,83.764030 
	C69.702209,82.926430 84.158127,67.475769 83.303490,50.193672 
	C82.277367,29.443859 64.240562,13.639044 41.196171,19.972921 
	C22.324318,25.159956 13.124418,46.323109 21.370111,64.981216 
z"/>
<path fill="#FCD53F" opacity="1.000000" stroke="none" 
	d="
M21.156170,64.664932 
	C13.124418,46.323109 22.324318,25.159956 41.196171,19.972921 
	C64.240562,13.639044 82.277367,29.443859 83.303490,50.193672 
	C84.158127,67.475769 69.702209,82.926430 52.774124,83.764030 
	C38.614231,84.464645 27.893576,77.841202 21.156170,64.664932 
z"/>
</svg>