<svg version="1.1" id="Layer_1" xmlns="http://www.w3.org/2000/svg" xmlns:xlink="http://www.w3.org/1999/xlink" x="0px" y="0px"
	 width="100%" viewBox="0 0 90 90" enable-background="new 0 0 90 90" xml:space="preserve">
<path fill="#000000" opacity="1.000000" stroke="none" 
	d="
M62.000000,91.000000 
	C42.333336,91.000000 23.166330,90.945595 4.000428,91.066261 
	C1.498605,91.082008 0.925766,90.500397 0.934961,87.999771 
	C1.037918,60.000156 1.037915,31.999880 0.934968,4.000265 
	C0.925774,1.499729 1.499542,0.925762 4.000212,0.934957 
	C31.999826,1.037922 60.000103,1.037911 87.999718,0.934971 
	C90.500214,0.925778 91.074249,1.499481 91.065048,4.000196 
	C90.962074,31.999811 90.962090,60.000088 91.065025,87.999702 
	C91.074219,90.500153 90.507004,91.121826 87.998604,91.068680 
	C79.502396,90.888672 71.000023,91.000000 62.000000,91.000000 
z"/>
<path fill="#7BB246" opacity="1.000000" stroke="none" 
	d="
M44.372871,65.922272 
	C41.789307,71.050362 40.770905,76.490028 36.290245,80.409988 
	C33.183475,83.127983 29.729073,84.821335 25.986874,85.836662 
	C20.965738,87.198982 15.254093,81.691170 16.506010,76.350990 
	C17.306082,72.938194 16.768114,72.649162 13.670669,72.919342 
	C9.667128,73.268547 5.965283,71.956573 4.155547,68.135117 
	C1.793445,63.147282 4.491200,58.926834 7.388717,55.194336 
	C13.614564,47.174397 22.852644,45.976345 32.062195,45.047611 
	C35.026291,44.748699 38.044689,44.988274 41.499828,44.942451 
	C45.546471,44.127991 45.715206,47.623520 47.646736,49.599564 
	C48.165070,50.506088 48.314205,51.083164 48.339806,52.142281 
	C46.907074,55.266312 46.598389,58.171947 46.408062,61.124413 
	C46.300545,62.792347 46.233414,64.538048 44.372871,65.922272 
z"/>
<path fill="#83BF4F" opacity="1.000000" stroke="none" 
	d="
M46.071983,52.440163 
	C46.008362,51.588024 46.016052,51.169624 46.030197,50.437431 
	C45.982773,47.687309 44.880722,44.634018 49.609375,44.838120 
	C58.257347,44.940941 66.434349,45.004192 74.359200,47.927795 
	C80.986359,50.372662 85.521973,54.709305 87.940277,61.224751 
	C90.446106,67.976036 85.116463,74.099075 77.823280,72.823463 
	C76.315971,72.559830 74.761230,71.274338 75.113037,74.099442 
	C75.688736,78.722473 75.262505,82.865944 70.472977,85.119064 
	C65.290054,87.557251 61.194916,84.464577 57.463402,81.782600 
	C52.334335,78.096138 49.441906,72.752701 48.371689,66.223007 
	C45.098923,64.851677 46.407207,62.171833 46.116074,60.133759 
	C45.775646,57.750603 45.912270,55.294460 46.071983,52.440163 
z"/>
<path fill="#7BB246" opacity="1.000000" stroke="none" 
	d="
M46.759956,40.321480 
	C46.925179,32.479004 47.461094,25.111526 49.965099,18.071520 
	C52.583717,10.709267 57.073704,5.352312 65.332153,3.794995 
	C71.499115,2.632077 77.085411,7.317643 75.571815,13.511494 
	C74.634949,17.345230 75.581848,16.484158 78.346169,16.164516 
	C85.937332,15.286732 90.435127,21.843288 87.570213,28.948059 
	C84.136772,37.462692 77.021828,40.912815 68.811111,43.001114 
	C62.943237,44.493538 56.969734,43.863155 50.574226,44.035271 
	C46.853539,45.177608 46.339710,43.363873 46.759956,40.321480 
z"/>
<path fill="#83BF4F" opacity="1.000000" stroke="none" 
	d="
M42.303246,44.216991 
	C32.210155,43.922455 22.445805,44.560596 13.582550,39.262920 
	C8.925993,36.479641 5.224782,33.175159 3.978674,27.655081 
	C2.261968,20.050312 6.579250,15.362561 14.249731,16.689390 
	C15.717218,16.943233 17.086954,17.336693 16.907232,15.220185 
	C16.512526,10.571949 16.324076,5.935210 21.750532,4.034771 
	C27.348436,2.074288 31.776075,4.841117 35.839672,8.343495 
	C40.839920,12.653166 42.778305,18.541382 43.934662,24.709967 
	C44.815048,29.406370 45.353771,34.176659 45.045540,39.440556 
	C46.020569,42.294655 45.419861,43.881329 42.303246,44.216991 
z"/>
<path fill="#699535" opacity="1.000000" stroke="none" 
	d="
M45.851921,52.383476 
	C47.590553,56.268330 47.150181,60.837868 48.010979,65.644547 
	C48.651241,71.114502 49.439877,76.139030 49.841930,81.194298 
	C50.024242,83.486595 51.070236,86.191780 48.231007,87.941643 
	C46.412567,89.062386 44.752663,88.778603 43.275433,87.592216 
	C41.068485,85.819756 41.960224,83.262093 42.163094,81.065704 
	C42.599308,76.343025 43.363403,71.650627 43.984638,66.517929 
	C44.551712,61.646858 45.127438,57.203693 45.851921,52.383476 
z"/>
<path fill="#6B9836" opacity="1.000000" stroke="none" 
	d="
M41.925003,44.281181 
	C43.296146,43.241047 44.076790,41.897232 44.933655,40.195297 
	C45.492592,39.919361 45.906971,39.946140 46.631096,39.934795 
	C47.698433,41.252468 47.994244,42.916641 49.817501,43.909267 
	C50.114761,44.059216 50.037868,44.481274 50.033207,44.695751 
	C48.220428,45.986797 46.982307,47.506546 46.228249,49.837631 
	C44.825268,48.547245 43.613884,46.970852 42.181957,45.148930 
	C41.961411,44.903400 41.962086,44.486374 41.925003,44.281181 
z"/>
<path fill="#71A33C" opacity="1.000000" stroke="none" 
	d="
M65.983353,63.424904 
	C66.020622,63.426849 65.946075,63.422955 65.983353,63.424904 
z"/>
<path fill="#71A33C" opacity="1.000000" stroke="none" 
	d="
M56.146309,54.179436 
	C56.293102,54.141308 56.535572,54.349163 56.863071,54.812355 
	C56.717030,54.847046 56.481659,54.632954 56.146309,54.179436 
z"/>
<path fill="#71A33C" opacity="1.000000" stroke="none" 
	d="
M53.984303,51.961380 
	C53.987099,52.019989 53.981506,51.902771 53.984303,51.961380 
z"/>
<path fill="#71A33C" opacity="1.000000" stroke="none" 
	d="
M54.860794,52.814522 
	C54.727711,52.837234 54.493626,52.626221 54.135044,52.204590 
	C53.987099,52.019989 54.002323,51.999687 54.013302,51.991756 
	C54.287514,52.161900 54.524864,52.369564 54.860794,52.814522 
z"/>
<path fill="#71A33C" opacity="1.000000" stroke="none" 
	d="
M55.014782,52.990635 
	C55.291519,53.153053 55.528362,53.356873 55.880310,53.779217 
	C56.023453,53.965160 56.000500,53.995117 55.985863,54.007545 
	C55.713932,53.838501 55.481430,53.629456 55.129486,53.207535 
	C54.985252,53.022232 55.002926,52.999458 55.014782,52.990635 
z"/>
<path fill="#71A33C" opacity="1.000000" stroke="none" 
	d="
M57.867760,55.812416 
	C57.715176,55.854053 57.480690,55.643387 57.122997,55.220715 
	C56.975281,55.035988 57.007710,54.999893 57.026993,54.983536 
	C57.311268,55.143208 57.549625,55.349945 57.867760,55.812416 
z"/>
<path fill="#71A33C" opacity="1.000000" stroke="none" 
	d="
M58.867970,56.812462 
	C58.714756,56.854588 58.480305,56.643974 58.122169,56.221863 
	C57.974171,56.037441 58.008373,55.999882 58.028458,55.982658 
	C58.313007,56.142094 58.550964,56.349213 58.867970,56.812462 
z"/>
<path fill="#71A33C" opacity="1.000000" stroke="none" 
	d="
M59.029358,56.982224 
	C59.313351,57.142029 59.550819,57.349518 59.867954,57.812279 
	C59.715271,57.853935 59.480595,57.643673 59.121849,57.222237 
	C58.973526,57.038128 59.009415,56.999477 59.029358,56.982224 
z"/>
<path fill="#71A33C" opacity="1.000000" stroke="none" 
	d="
M60.028328,57.982712 
	C60.313690,58.140976 60.552242,58.347557 60.868584,58.811798 
	C60.713879,58.855511 60.478996,58.645252 60.121658,58.222099 
	C59.974205,58.037132 60.008892,57.999409 60.028328,57.982712 
z"/>
<path fill="#71A33C" opacity="1.000000" stroke="none" 
	d="
M61.029167,58.982338 
	C61.312988,59.142330 61.550461,59.349800 61.868092,59.812122 
	C61.715912,59.853325 61.481201,59.643085 61.122200,59.221863 
	C60.973763,59.037842 61.009357,58.999447 61.029167,58.982338 
z"/>
<path fill="#71A33C" opacity="1.000000" stroke="none" 
	d="
M62.868370,60.812325 
	C62.713120,60.856205 62.479630,60.644379 62.122433,60.221382 
	C61.974781,60.036598 62.008228,59.999710 62.027962,59.982864 
	C62.313225,60.141376 62.552723,60.347038 62.868370,60.812325 
z"/>
<path fill="#71A33C" opacity="1.000000" stroke="none" 
	d="
M63.034462,60.978683 
	C63.056770,60.958740 63.033951,61.112968 63.002251,61.077305 
	C62.970547,61.041641 63.012154,60.998627 63.034462,60.978683 
z"/>
<path fill="#70A13C" opacity="1.000000" stroke="none" 
	d="
M55.969887,36.016201 
	C56.014004,36.008778 55.925766,36.023624 55.969887,36.016201 
z"/>
<path fill="#70A13C" opacity="1.000000" stroke="none" 
	d="
M66.028893,25.980846 
	C65.977730,25.985975 66.080055,25.975719 66.028893,25.980846 
z"/>
<path fill="#70A13C" opacity="1.000000" stroke="none" 
	d="
M66.006065,26.010857 
	C65.818115,26.268885 65.605049,26.500578 65.174477,26.849941 
	C65.168907,26.734512 65.382996,26.503544 65.797287,26.138435 
	C65.977730,25.985975 65.998550,26.000710 66.006065,26.010857 
z"/>
<path fill="#70A13C" opacity="1.000000" stroke="none" 
	d="
M64.174423,27.850773 
	C64.164833,27.731495 64.378525,27.500105 64.793716,27.135794 
	C64.974571,26.983801 64.997864,27.000681 65.006760,27.012287 
	C64.820938,27.272449 64.608070,27.504349 64.174423,27.850773 
z"/>
<path fill="#70A13C" opacity="1.000000" stroke="none" 
	d="
M63.174133,28.850983 
	C63.163193,28.730480 63.376659,28.498978 63.791252,28.134211 
	C63.971786,27.981955 63.997269,28.000893 64.007278,28.013592 
	C63.822083,28.274332 63.608967,28.505898 63.174133,28.850983 
z"/>
<path fill="#70A13C" opacity="1.000000" stroke="none" 
	d="
M62.174019,29.851082 
	C62.162457,29.730040 62.375778,29.498461 62.789986,29.133396 
	C62.970318,28.980974 62.996941,29.001017 63.007568,29.014267 
	C62.822666,29.275249 62.609383,29.506615 62.174019,29.851082 
z"/>
<path fill="#70A13C" opacity="1.000000" stroke="none" 
	d="
M61.174004,30.851135 
	C61.162266,30.729944 61.375496,30.498312 61.789474,30.133064 
	C61.969692,29.980553 61.996796,30.001066 62.007683,30.014553 
	C61.822880,30.275612 61.609505,30.506863 61.174004,30.851135 
z"/>
<path fill="#70A13C" opacity="1.000000" stroke="none" 
	d="
M60.174088,31.851164 
	C60.162483,31.730125 60.375618,31.498438 60.789421,31.133051 
	C60.969570,30.980474 60.996761,31.001072 61.007690,31.014603 
	C60.822857,31.275618 60.609417,31.506786 60.174088,31.851164 
z"/>
<path fill="#70A13C" opacity="1.000000" stroke="none" 
	d="
M59.174324,32.851158 
	C59.163380,32.730789 59.376339,32.498993 59.789837,32.133362 
	C59.969868,31.980690 59.996826,32.001049 60.007629,32.014462 
	C59.822514,32.275204 59.608940,32.506207 59.174324,32.851158 
z"/>
<path fill="#70A13C" opacity="1.000000" stroke="none" 
	d="
M58.174469,33.850998 
	C58.164791,33.731857 58.377682,33.500011 58.790966,33.134178 
	C58.970928,32.981426 58.997044,33.000919 59.007381,33.013908 
	C58.821636,33.274082 58.607933,33.504959 58.174469,33.850998 
z"/>
<path fill="#70A13C" opacity="1.000000" stroke="none" 
	d="
M58.007011,34.013290 
	C57.818714,34.270779 57.604061,34.500397 57.175468,34.850304 
	C57.170979,34.736385 57.383209,34.504372 57.793652,34.136345 
	C57.972328,33.982464 57.997425,34.001091 58.007011,34.013290 
z"/>
<path fill="#70A13C" opacity="1.000000" stroke="none" 
	d="
M57.005859,35.010311 
	C56.818604,35.266453 56.605434,35.495365 56.193798,35.857834 
	C56.014004,36.008778 56.000118,35.999470 55.995140,35.992111 
	C56.179714,35.734493 56.389824,35.502884 56.799393,35.138100 
	C56.978291,34.986271 56.998619,35.000473 57.005859,35.010311 
z"/>
<path fill="#7BB246" opacity="1.000000" stroke="none" 
	d="
M41.503433,40.505302 
	C41.482540,40.512383 41.524323,40.498222 41.503433,40.505302 
z"/>
<path fill="#71A33C" opacity="1.000000" stroke="none" 
	d="
M25.146898,25.178305 
	C25.294764,25.139923 25.533850,25.350994 25.862366,25.811714 
	C25.717533,25.845901 25.479639,25.634699 25.146898,25.178305 
z"/>
<path fill="#71A33C" opacity="1.000000" stroke="none" 
	d="
M36.023499,36.034187 
	C36.018139,35.972790 36.028854,36.095581 36.023499,36.034187 
z"/>
<path fill="#71A33C" opacity="1.000000" stroke="none" 
	d="
M24.983349,25.008484 
	C24.967142,25.023201 24.974861,24.886385 25.001404,24.923325 
	C25.027946,24.960264 24.999554,24.993769 24.983349,25.008484 
z"/>
<path fill="#71A33C" opacity="1.000000" stroke="none" 
	d="
M31.144363,31.180399 
	C31.300066,31.133425 31.542440,31.341881 31.863926,31.812048 
	C31.709692,31.855326 31.472357,31.642681 31.144363,31.180399 
z"/>
<path fill="#71A33C" opacity="1.000000" stroke="none" 
	d="
M27.144154,27.180798 
	C27.298246,27.135401 27.540798,27.343521 27.863434,27.812439 
	C27.710230,27.854668 27.473261,27.641695 27.144154,27.180798 
z"/>
<path fill="#71A33C" opacity="1.000000" stroke="none" 
	d="
M28.028078,27.983120 
	C28.314840,28.139500 28.553637,28.345810 28.868080,28.812565 
	C28.708750,28.861784 28.472775,28.652515 28.117828,28.226505 
	C27.971943,28.040112 28.008022,28.000746 28.028078,27.983120 
z"/>
<path fill="#71A33C" opacity="1.000000" stroke="none" 
	d="
M29.867844,29.811844 
	C29.711313,29.858562 29.474487,29.650660 29.118128,29.226379 
	C28.971638,29.040705 29.007498,29.001179 29.028376,28.982874 
	C29.314560,29.140181 29.551672,29.347967 29.867844,29.811844 
z"/>
<path fill="#71A33C" opacity="1.000000" stroke="none" 
	d="
M30.024071,29.985136 
	C30.308739,30.138376 30.544790,30.342278 30.889593,30.770000 
	C31.028967,30.958368 30.999729,30.994150 30.981920,31.009968 
	C30.701778,30.851437 30.467049,30.645609 30.117510,30.222031 
	C29.975096,30.035763 30.006077,30.000349 30.024071,29.985136 
z"/>
<path fill="#71A33C" opacity="1.000000" stroke="none" 
	d="
M26.019686,25.987740 
	C26.301758,26.143921 26.538605,26.347273 26.886387,26.772957 
	C27.027271,26.960403 26.999739,26.994562 26.982777,27.009434 
	C26.704802,26.847864 26.470898,26.640800 26.121817,26.216534 
	C25.979530,26.029955 26.004414,26.000025 26.019686,25.987740 
z"/>
<path fill="#71A33C" opacity="1.000000" stroke="none" 
	d="
M32.028328,31.982990 
	C32.314579,32.140034 32.552639,32.347031 32.867973,32.812355 
	C32.710186,32.860046 32.473885,32.651321 32.118050,32.226334 
	C31.971762,32.040363 32.008133,32.000748 32.028328,31.982990 
z"/>
<path fill="#71A33C" opacity="1.000000" stroke="none" 
	d="
M33.026955,32.983826 
	C33.312298,33.141903 33.550201,33.349072 33.867825,33.812073 
	C33.712543,33.857323 33.476036,33.648849 33.119694,33.224327 
	C32.973244,33.038483 33.007648,33.000614 33.026955,32.983826 
z"/>
<path fill="#71A33C" opacity="1.000000" stroke="none" 
	d="
M34.866188,34.811943 
	C34.718864,34.849392 34.482086,34.641708 34.123322,34.220184 
	C33.975674,34.035603 34.006336,34.000729 34.024796,33.985134 
	C34.306911,34.147072 34.542847,34.355919 34.866188,34.811943 
z"/>
<path fill="#71A33C" opacity="1.000000" stroke="none" 
	d="
M35.018742,34.988457 
	C35.296196,35.151329 35.530716,35.357895 35.877426,35.784813 
	C36.018139,35.972790 36.000465,35.997059 35.988647,36.006454 
	C35.716885,35.837929 35.482140,35.631363 35.126953,35.211987 
	C34.981312,35.027813 35.004326,34.999775 35.018742,34.988457 
z"/>
</svg>