<svg version="1.1" id="Layer_1" xmlns="http://www.w3.org/2000/svg" xmlns:xlink="http://www.w3.org/1999/xlink" x="0px" y="0px"
	 width="100%" viewBox="0 0 80 79" enable-background="new 0 0 80 79" xml:space="preserve">
<path fill="#000000" opacity="1.000000" stroke="none" 
	d="
M81.000000,28.000000 
	C81.000000,45.253960 81.000000,62.507919 81.000000,80.000000 
	C66.646652,80.000000 52.291985,80.000000 37.117023,79.707443 
	C39.471687,68.424820 42.805161,57.475712 45.665867,46.404449 
	C46.143768,44.554897 45.083576,40.775558 43.839249,40.317184 
	C40.803764,39.198997 39.422207,41.456089 38.873344,44.659180 
	C38.225647,48.439068 36.446770,52.017200 35.702919,55.790173 
	C34.112957,63.854794 29.512419,71.344749 31.000000,80.000000 
	C27.307091,80.000000 23.614182,80.000000 19.463753,79.636337 
	C23.708303,72.406364 28.410376,65.540054 33.420998,58.223179 
	C30.235966,58.048843 27.698105,57.909931 24.836790,57.753311 
	C27.988277,51.677395 30.932428,46.001217 33.793743,40.484741 
	C24.302452,38.267971 17.394644,39.938774 17.091446,51.214924 
	C11.285493,48.721184 7.702770,43.882957 8.005310,39.597466 
	C8.406905,33.908840 11.975190,30.563656 18.649021,28.845095 
	C19.995590,28.498344 21.117920,26.546955 21.955904,25.109364 
	C23.789745,21.963345 24.618231,17.775093 27.196667,15.600801 
	C36.738182,7.554819 50.212208,13.076671 51.903408,25.509014 
	C52.301697,28.436905 53.487427,29.181955 56.041409,29.013792 
	C57.367077,28.926506 58.703362,28.988640 60.034687,29.001066 
	C65.455765,29.051670 69.954422,32.876587 70.980339,38.299412 
	C71.791779,42.588512 68.216011,49.815994 63.836746,50.454731 
	C57.546520,51.372181 58.880039,55.040157 59.313427,58.940807 
	C73.875710,56.146324 79.046181,48.899364 77.057564,34.647823 
	C76.631111,31.591644 77.637505,28.999660 81.000000,28.000000 
M56.433556,51.055965 
	C57.078667,48.737564 58.119373,46.435265 58.214676,44.094479 
	C58.268452,42.773693 57.046524,40.789242 55.868637,40.238449 
	C55.040745,39.851311 52.442295,41.103096 52.133530,42.091389 
	C49.555328,50.343708 47.324966,58.704697 44.958313,67.144714 
	C48.679996,68.472740 51.430492,69.603699 52.565189,65.871246 
	C53.969067,61.253338 54.906601,56.493652 56.433556,51.055965 
z"/>
<path fill="#8DC8FF" opacity="1.000000" stroke="none" 
	d="
M81.000000,27.535349 
	C77.637505,28.999660 76.631111,31.591644 77.057564,34.647823 
	C79.046181,48.899364 73.875710,56.146324 59.313427,58.940807 
	C58.880039,55.040157 57.546520,51.372181 63.836746,50.454731 
	C68.216011,49.815994 71.791779,42.588512 70.980339,38.299412 
	C69.954422,32.876587 65.455765,29.051670 60.034687,29.001066 
	C58.703362,28.988640 57.367077,28.926506 56.041409,29.013792 
	C53.487427,29.181955 52.301697,28.436905 51.903408,25.509014 
	C50.212208,13.076671 36.738182,7.554819 27.196667,15.600801 
	C24.618231,17.775093 23.789745,21.963345 21.955904,25.109364 
	C21.117920,26.546955 19.995590,28.498344 18.649021,28.845095 
	C11.975190,30.563656 8.406905,33.908840 8.005310,39.597466 
	C7.702770,43.882957 11.285493,48.721184 17.091446,51.214924 
	C17.394644,39.938774 24.302452,38.267971 33.793743,40.484741 
	C30.932428,46.001217 27.988277,51.677395 24.836790,57.753311 
	C27.698105,57.909931 30.235966,58.048843 33.420998,58.223179 
	C28.410376,65.540054 23.708303,72.406364 19.003117,79.636337 
	C18.555555,80.000000 18.111111,80.000000 17.333267,79.574265 
	C17.878197,74.565643 18.756529,69.982758 19.670897,65.211845 
	C17.263384,65.071136 14.690556,64.920769 11.724587,64.747429 
	C12.539821,62.116791 13.240195,59.856785 13.940569,57.596783 
	C13.594437,57.886841 13.248304,58.176899 12.902172,58.466957 
	C9.634369,55.084961 6.386204,51.683552 3.079872,48.339649 
	C2.513885,47.767227 1.699587,47.440323 1.000000,47.000000 
	C1.000000,42.643101 1.000000,38.286201 1.267076,33.788597 
	C4.909498,28.697504 8.213302,23.705572 14.454515,21.823286 
	C15.138857,21.616894 15.685061,20.375063 15.969174,19.506760 
	C19.500654,8.713934 31.675159,2.063730 43.909458,6.001369 
	C48.591961,7.508446 50.664928,3.936859 53.000000,1.000000 
	C58.022091,1.000000 63.044186,1.000000 68.209755,1.264385 
	C73.025597,5.046370 78.008888,8.281075 79.983276,14.274121 
	C79.989311,14.292413 80.646790,14.096087 81.000000,14.000000 
	C81.000000,18.356899 81.000000,22.713799 81.000000,27.535349 
M73.515724,19.014776 
	C72.724350,13.222056 69.116959,9.847066 63.775135,8.378254 
	C59.794815,7.283810 56.044643,8.053986 53.506241,11.026341 
	C55.086056,13.953015 56.474243,16.679241 58.021458,19.312004 
	C58.609051,20.311863 59.407330,21.587788 60.376274,21.894003 
	C64.439545,23.178120 68.603859,24.142490 72.793297,25.240248 
	C73.092499,23.803185 73.519455,21.752483 73.515724,19.014776 
z"/>
<path fill="#000000" opacity="1.000000" stroke="none" 
	d="
M52.531342,1.000000 
	C50.664928,3.936859 48.591961,7.508446 43.909458,6.001369 
	C31.675159,2.063730 19.500654,8.713934 15.969174,19.506760 
	C15.685061,20.375063 15.138857,21.616894 14.454515,21.823286 
	C8.213302,23.705572 4.909498,28.697504 1.267076,33.323944 
	C1.000000,22.389200 1.000000,11.778400 1.000000,1.000000 
	C18.020575,1.000000 35.041630,1.000000 52.531342,1.000000 
z"/>
<path fill="#000000" opacity="1.000000" stroke="none" 
	d="
M1.000000,47.468658 
	C1.699587,47.440323 2.513885,47.767227 3.079872,48.339649 
	C6.386204,51.683552 9.634369,55.084961 12.902172,58.466957 
	C13.248304,58.176899 13.594437,57.886841 13.940569,57.596783 
	C13.240195,59.856785 12.539821,62.116791 11.724587,64.747429 
	C14.690556,64.920769 17.263384,65.071136 19.670897,65.211845 
	C18.756529,69.982758 17.878197,74.565643 16.999933,79.574265 
	C11.714757,80.000000 6.429513,80.000000 1.000000,80.000000 
	C1.000000,69.312790 1.000000,58.625053 1.000000,47.468658 
z"/>
<path fill="#8DC8FF" opacity="1.000000" stroke="none" 
	d="
M31.428463,80.000000 
	C29.512419,71.344749 34.112957,63.854794 35.702919,55.790173 
	C36.446770,52.017200 38.225647,48.439068 38.873344,44.659180 
	C39.422207,41.456089 40.803764,39.198997 43.839249,40.317184 
	C45.083576,40.775558 46.143768,44.554897 45.665867,46.404449 
	C42.805161,57.475712 39.471687,68.424820 36.648365,79.707443 
	C35.285641,80.000000 33.571281,80.000000 31.428463,80.000000 
z"/>
<path fill="#000000" opacity="1.000000" stroke="none" 
	d="
M81.000000,13.523338 
	C80.646790,14.096087 79.989311,14.292413 79.983276,14.274121 
	C78.008888,8.281075 73.025597,5.046370 68.676620,1.264385 
	C72.925987,1.000000 76.851974,1.000000 81.000000,1.000000 
	C81.000000,5.013897 81.000000,9.030287 81.000000,13.523338 
z"/>
<path fill="#8DC8FF" opacity="1.000000" stroke="none" 
	d="
M56.239582,51.425591 
	C54.906601,56.493652 53.969067,61.253338 52.565189,65.871246 
	C51.430492,69.603699 48.679996,68.472740 44.958313,67.144714 
	C47.324966,58.704697 49.555328,50.343708 52.133530,42.091389 
	C52.442295,41.103096 55.040745,39.851311 55.868637,40.238449 
	C57.046524,40.789242 58.268452,42.773693 58.214676,44.094479 
	C58.119373,46.435265 57.078667,48.737564 56.239582,51.425591 
z"/>
<path fill="#000000" opacity="1.000000" stroke="none" 
	d="
M73.731071,19.358278 
	C73.519455,21.752483 73.092499,23.803185 72.793297,25.240248 
	C68.603859,24.142490 64.439545,23.178120 60.376274,21.894003 
	C59.407330,21.587788 58.609051,20.311863 58.021458,19.312004 
	C56.474243,16.679241 55.086056,13.953015 53.506241,11.026341 
	C56.044643,8.053986 59.794815,7.283810 63.775135,8.378254 
	C69.116959,9.847066 72.724350,13.222056 73.731071,19.358278 
z"/>
</svg>